<?xml version="1.0" standalone="no"?>
<!DOCTYPE svg PUBLIC "-//W3C//DTD SVG 20010904//EN"
 "http://www.w3.org/TR/2001/REC-SVG-20010904/DTD/svg10.dtd">
<svg version="1.0" xmlns="http://www.w3.org/2000/svg"
 width="751.000000pt" height="332.000000pt" viewBox="0 0 751.000000 332.000000"
 preserveAspectRatio="xMidYMid meet">

<g transform="translate(0.000000,332.000000) scale(0.100000,-0.100000)"
fill="#000000" stroke="none">
<path d="M3765 3310 c-18 -7 -18 -8 8 -15 15 -4 39 -5 52 -3 14 3 25 1 25 -3
0 -5 -6 -9 -12 -10 -7 0 2 -5 20 -10 26 -8 44 -6 80 7 44 17 44 18 19 25 -15
4 -56 7 -92 8 -36 0 -69 2 -73 4 -4 3 -16 1 -27 -3z"/>
<path d="M3989 3309 c14 -5 52 -12 85 -14 46 -4 54 -3 31 4 -45 13 -146 22
-116 10z"/>
<path d="M4010 3275 c14 -8 36 -14 50 -14 23 0 23 1 5 8 -11 4 -33 11 -50 15
l-30 6 25 -15z"/>
<path d="M3065 3260 c-88 -17 -147 -30 -156 -35 -5 -3 -17 -1 -27 4 -20 10
-153 -5 -242 -29 -65 -17 -231 -69 -255 -80 -11 -5 -30 -12 -42 -15 -15 -4
-20 -11 -16 -21 4 -11 0 -15 -13 -13 -22 3 -91 -18 -119 -37 -11 -8 -27 -14
-37 -14 -10 0 -18 -4 -18 -10 0 -5 -9 -10 -20 -10 -20 0 -41 -10 -145 -68 -11
-6 -38 -21 -60 -32 -22 -12 -51 -30 -65 -41 -24 -20 -24 -20 -2 -9 46 23 33 1
-15 -25 -93 -51 -125 -73 -112 -77 8 -3 20 1 27 9 15 15 36 18 28 4 -11 -17
38 0 132 46 77 38 104 46 154 47 48 1 62 -3 73 -18 10 -14 18 -16 27 -9 25 20
68 24 84 8 14 -13 13 -16 -10 -25 -21 -8 -46 -37 -46 -54 0 -3 9 -6 19 -6 11
0 23 -5 26 -10 4 -6 11 -7 17 -4 6 4 13 2 17 -4 7 -11 77 -16 144 -10 40 4 61
23 52 47 -3 8 4 20 15 28 12 8 19 21 16 28 -3 8 17 22 57 40 34 14 78 37 97
50 19 13 65 33 102 45 92 28 160 59 130 60 -12 0 -39 -7 -59 -15 -49 -21 -52
-19 -15 9 26 19 41 23 77 18 28 -3 45 -1 45 6 0 14 -51 24 -86 17 -28 -6 -28
-6 -10 9 11 9 32 16 47 16 14 0 32 6 39 14 6 8 21 17 33 19 15 3 11 5 -13 7
l-35 3 35 7 35 7 -34 2 c-44 1 -36 9 20 20 l44 9 -43 1 c-26 1 -41 5 -37 11 3
6 13 10 21 10 8 0 23 9 33 19 11 11 45 25 76 32 31 7 58 16 61 21 6 9 7 9 -51
-2z m-222 -41 c-6 -6 -30 -12 -54 -14 l-44 -4 50 13 c28 8 52 15 55 15 2 1 -1
-4 -7 -10z m-426 -105 c-3 -3 -12 -4 -19 -1 -8 3 -5 6 6 6 11 1 17 -2 13 -5z
m-557 -309 c0 -6 -56 -35 -67 -35 -9 0 48 38 60 39 4 1 7 -1 7 -4z"/>
<path d="M3980 3129 c-25 -3 -51 -4 -57 -2 -7 3 -13 0 -13 -5 0 -7 -15 -9 -37
-6 -27 4 -34 3 -24 -4 11 -8 5 -13 -26 -21 -22 -6 -46 -18 -53 -26 -7 -8 -19
-15 -27 -15 -8 0 -11 -4 -8 -10 4 -6 -7 -10 -24 -10 -17 0 -31 -4 -31 -10 0
-5 -6 -7 -13 -4 -7 2 -27 -2 -43 -11 l-29 -15 25 -1 c21 -1 22 -2 5 -7 l-20
-5 20 -8 c19 -7 19 -8 -3 -8 -35 -1 -16 -21 20 -21 18 0 46 5 64 12 31 11 35
10 59 -16 14 -15 25 -32 25 -38 0 -6 12 -8 32 -4 36 7 58 23 58 42 0 8 6 11
17 7 10 -4 14 -2 10 5 -4 6 1 12 10 15 15 3 14 5 -6 14 -22 9 -22 10 -7 26 9
9 33 19 54 23 20 4 42 14 49 24 8 11 22 15 47 12 54 -6 52 -19 -4 -32 -43 -10
-50 -15 -48 -34 4 -31 16 -36 95 -36 43 0 75 -5 79 -12 5 -8 -6 -10 -42 -6
-58 7 -75 2 -67 -17 4 -11 -4 -14 -33 -12 -34 2 -39 -1 -42 -20 -3 -21 -9 -23
-65 -24 -34 -1 -92 -3 -129 -4 -76 -2 -103 8 -76 28 27 21 7 41 -25 26 -30
-13 -32 -20 -16 -36 17 -17 2 -33 -30 -33 -15 0 -32 -5 -39 -12 -7 -7 -12 -8
-12 -4 0 5 -6 3 -14 -3 -26 -22 -107 -61 -127 -61 -10 0 -19 -4 -19 -9 0 -5
-14 -9 -30 -9 -36 1 -54 -11 -19 -13 13 -1 27 -1 31 0 14 2 38 -46 32 -63 -4
-12 -19 -16 -53 -16 -25 0 -62 -3 -82 -6 -36 -6 -36 -6 -34 -53 1 -25 3 -50 4
-55 0 -4 11 -6 23 -3 12 4 28 1 34 -4 19 -16 136 25 136 47 -1 17 31 44 50 44
11 0 22 9 25 19 4 14 17 21 51 24 26 3 62 9 79 12 24 5 34 3 38 -8 4 -8 25
-22 48 -32 75 -31 86 -38 90 -54 4 -12 7 -11 12 7 5 14 13 21 21 18 8 -3 14
-4 14 -1 0 5 -61 35 -74 35 -21 1 -58 40 -52 55 5 13 9 13 28 3 13 -7 25 -16
28 -19 3 -4 26 -16 53 -28 26 -12 47 -27 47 -34 0 -7 16 -28 35 -47 25 -25 38
-31 46 -23 8 8 8 17 0 31 -9 17 -7 21 13 26 13 3 46 3 73 -1 43 -6 47 -5 35
10 -11 13 -10 19 7 36 44 44 66 53 95 37 15 -7 26 -18 24 -22 -2 -5 13 -10 32
-11 19 -1 27 1 18 3 -36 11 -17 24 33 24 l51 0 -22 -18 -23 -19 43 -24 c49
-27 60 -44 33 -51 -17 -5 -50 2 -138 29 -42 12 -195 -5 -195 -22 0 -30 50 -54
131 -61 88 -7 94 -15 58 -65 -20 -28 -22 -29 -98 -25 -42 3 -105 14 -139 25
-77 26 -89 26 -102 0 -9 -17 -17 -19 -43 -13 -18 4 -48 15 -67 25 -19 11 -46
19 -60 19 -38 0 -48 12 -44 48 l4 32 -55 -5 c-30 -3 -79 -7 -109 -10 -29 -3
-69 -12 -89 -20 -20 -8 -56 -15 -79 -15 -36 0 -50 -6 -86 -39 -23 -21 -42 -48
-42 -58 0 -20 -29 -53 -47 -53 -14 0 -45 -38 -71 -86 -20 -38 -21 -44 -7 -72
11 -22 13 -36 5 -56 -13 -36 2 -70 40 -86 17 -7 35 -21 40 -30 11 -21 90 -61
117 -61 45 2 142 20 178 34 54 22 71 21 94 -4 13 -14 26 -19 37 -15 32 12 54
-3 54 -38 0 -17 -5 -37 -12 -44 -9 -9 -4 -20 23 -49 18 -21 37 -40 40 -43 4
-3 12 -29 18 -59 9 -45 9 -57 -3 -70 -8 -9 -17 -32 -21 -52 -5 -29 -2 -45 18
-76 13 -21 28 -58 32 -81 4 -23 13 -48 20 -55 19 -19 47 -76 41 -85 -3 -4 -1
-14 4 -22 10 -16 132 -15 163 1 37 20 97 82 97 100 0 11 13 25 31 35 29 14 31
19 25 52 -5 36 -4 38 37 56 74 32 72 30 72 82 0 27 -3 68 -7 92 -6 40 -4 46
30 79 19 20 60 47 91 61 54 25 161 119 161 141 0 6 -15 11 -32 12 -117 3 -120
4 -144 54 -9 19 -24 37 -35 40 -10 4 -19 12 -19 19 0 7 -9 25 -20 39 -11 14
-20 34 -20 46 0 11 -10 36 -22 54 -26 39 -60 97 -67 112 -2 6 3 4 12 -3 9 -8
20 -11 24 -9 5 3 22 -15 38 -41 16 -26 35 -51 42 -55 7 -4 13 -17 13 -27 0
-11 16 -40 35 -66 24 -31 35 -56 35 -79 0 -37 20 -51 52 -34 11 6 28 9 38 6 9
-2 42 0 71 5 30 5 65 11 79 12 42 5 80 18 80 26 0 5 9 12 20 15 28 9 25 28
-10 53 -19 15 -27 28 -23 38 5 15 3 15 -24 0 -38 -19 -90 -8 -85 18 2 11 -1
15 -7 11 -6 -3 -11 0 -11 8 0 8 -9 22 -20 32 -24 22 -25 34 -5 41 9 4 32 -12
61 -40 30 -30 54 -46 71 -46 13 0 32 -9 41 -20 10 -11 53 -30 97 -43 62 -18
88 -31 117 -60 20 -20 32 -37 27 -37 -4 0 -6 -7 -3 -15 4 -8 18 -15 33 -15 26
0 26 -1 26 -67 0 -96 23 -183 47 -183 25 0 68 47 68 75 0 19 7 23 48 29 27 3
71 12 99 19 41 11 54 11 68 1 9 -7 23 -10 31 -7 9 3 14 -2 14 -14 0 -10 7 -29
16 -42 10 -14 14 -33 11 -51 -7 -30 10 -44 39 -33 14 5 15 -2 10 -52 -3 -32
-11 -64 -17 -72 -9 -10 -9 -20 0 -39 6 -14 11 -42 11 -62 0 -21 8 -49 17 -62
l17 -24 7 34 c7 32 -3 68 -21 80 -22 14 -4 111 19 110 11 -1 62 -80 64 -99 1
-16 8 -20 42 -19 22 1 46 6 53 11 16 13 15 56 -3 87 -8 14 -14 32 -15 41 0 21
37 31 62 18 22 -12 24 -39 2 -39 -9 0 -14 -6 -11 -12 5 -18 32 -16 32 2 0 19
65 16 104 -5 28 -14 100 -18 116 -5 6 4 23 10 38 14 23 5 26 10 18 20 -9 10
-8 15 3 19 14 6 11 53 -5 63 -5 3 -9 9 -9 15 0 13 37 11 63 -2 22 -12 22 -12
3 10 -11 11 -24 21 -29 21 -10 0 -36 30 -37 42 0 9 73 -2 85 -14 6 -6 5 -12
-5 -18 -13 -8 -12 -10 3 -10 30 0 69 -31 57 -45 -7 -9 -6 -16 5 -25 13 -11 13
-14 0 -27 -8 -8 -15 -18 -15 -23 0 -7 52 -30 68 -30 3 0 2 20 -2 46 -4 32 -3
43 6 38 6 -4 29 -6 51 -6 26 1 44 -3 52 -14 12 -18 77 -33 142 -34 57 0 101
36 84 68 -6 12 -18 22 -25 22 -8 0 -23 15 -34 34 l-20 34 26 -8 c15 -4 53 -16
86 -25 46 -14 75 -33 142 -92 46 -41 82 -78 79 -82 -2 -5 9 -18 25 -30 17 -12
30 -17 30 -12 0 16 51 -9 87 -42 18 -17 30 -34 27 -38 -2 -5 13 -17 35 -28 44
-23 62 -42 34 -36 -10 2 -56 22 -102 45 -92 47 -103 45 -116 -17 -7 -34 -3
-38 37 -34 9 1 19 -3 23 -9 3 -6 11 -7 17 -4 6 4 17 -1 24 -10 8 -12 14 -14
19 -6 5 8 11 8 21 -1 13 -11 19 -2 15 24 0 4 6 7 15 7 19 0 124 -89 124 -106
0 -7 18 -24 41 -37 45 -27 129 -104 129 -118 0 -5 4 -9 9 -9 10 0 9 26 -2 36
-4 4 -7 12 -7 17 0 5 10 -2 21 -17 12 -15 27 -25 34 -22 8 3 18 -7 24 -25 5
-16 15 -29 20 -29 6 0 11 -7 11 -15 0 -25 51 -99 59 -86 5 7 12 2 20 -15 6
-15 14 -24 18 -21 7 8 -35 80 -53 90 -8 4 -14 18 -14 30 -1 47 -175 297 -207
297 -8 0 -19 12 -26 28 -7 15 -44 60 -82 101 -39 40 -73 86 -78 102 -4 16 -31
49 -63 76 -30 26 -71 72 -91 101 -19 29 -46 58 -59 64 -13 6 -21 14 -19 18 7
12 -88 96 -125 110 -34 13 -45 22 -107 83 -16 15 -35 27 -44 27 -20 0 -46 28
-51 55 -2 11 -14 25 -26 31 -13 6 -23 15 -23 20 -1 16 -23 37 -54 50 -16 7
-61 40 -99 73 -38 34 -77 61 -86 61 -8 0 -23 9 -33 20 -9 11 -49 34 -88 52
-98 43 -74 47 29 4 45 -19 82 -31 82 -27 0 11 -39 45 -85 74 -22 14 -49 34
-60 44 -32 31 -72 54 -87 52 -7 -2 -23 2 -35 9 -19 10 -23 10 -23 0 -1 -10 -4
-9 -13 2 -23 28 -213 113 -276 124 -29 5 -32 4 -21 -9 7 -8 -18 1 -55 21 -73
37 -97 37 -52 -2 16 -13 25 -29 22 -34 -9 -14 -27 -12 -23 2 7 21 -51 60 -107
72 l-30 6 28 -16 c39 -21 29 -28 -11 -8 -18 8 -32 22 -32 30 0 8 -10 14 -22
14 -17 0 -23 -6 -24 -25 -1 -16 3 -25 13 -25 22 0 70 -28 76 -45 9 -21 2 -19
-29 10 -27 25 -54 33 -54 16 0 -11 -66 -3 -90 10 -10 6 -4 8 21 9 34 0 35 1
33 35 -2 22 1 35 9 35 7 1 -4 9 -23 20 -25 13 -45 17 -70 13 -45 -8 -54 -22
-27 -44 12 -10 17 -18 12 -19 -6 0 -15 4 -21 10 -13 13 -196 91 -201 86 -3 -2
5 -7 16 -11 12 -3 21 -11 21 -16 0 -12 -17 -12 -24 0 -3 5 -32 12 -63 16 -32
4 -64 12 -71 18 -8 6 -53 12 -100 15 -103 4 -123 9 -102 22 9 6 10 10 3 10 -6
0 -18 3 -27 6 -11 4 -16 0 -16 -12 0 -17 -7 -19 -50 -16 -33 3 -50 0 -50 -8 0
-10 -15 -9 -58 7 -8 4 -10 0 -6 -11 6 -15 3 -15 -30 0 -20 10 -36 22 -36 27 0
5 -8 16 -17 24 -10 8 -12 11 -5 8 22 -11 125 -34 155 -35 15 0 27 4 27 9 0 11
-103 48 -158 57 -23 4 -45 11 -48 15 -3 5 -10 7 -15 3 -5 -3 -22 2 -37 13 -21
14 -47 18 -117 18 -49 0 -110 -3 -135 -6z"/>
<path d="M4840 3069 c-25 -5 -53 -10 -63 -10 -20 0 -13 -19 7 -19 8 0 19 -6
25 -14 6 -8 23 -16 36 -19 19 -3 23 -1 15 8 -6 7 -8 19 -5 26 8 20 140 15 245
-10 45 -10 78 -15 73 -10 -4 4 -42 16 -83 25 -175 38 -173 38 -250 23z"/>
<path d="M3068 2995 c-9 -10 -112 -33 -121 -28 -12 7 -57 -6 -57 -17 0 -5 7
-6 17 -3 11 4 14 3 9 -5 -5 -8 -1 -10 10 -5 10 4 15 2 11 -3 -7 -12 84 -1 128
15 17 6 38 14 48 17 9 4 17 10 17 14 0 15 -50 27 -62 15z"/>
<path d="M3300 2979 c0 -5 5 -7 10 -4 6 3 10 8 10 11 0 2 -4 4 -10 4 -5 0 -10
-5 -10 -11z"/>
<path d="M3368 2923 c-39 -20 -37 -50 4 -61 35 -9 50 -32 21 -32 -11 0 -20 -7
-20 -16 0 -11 7 -14 26 -9 31 8 17 -10 -14 -19 -11 -3 7 -3 40 0 40 4 67 12
80 25 19 19 19 19 -2 19 -11 0 -23 7 -27 15 -3 8 -12 15 -21 15 -8 0 -15 5
-15 10 0 6 -10 10 -21 10 -18 0 -19 2 -9 15 10 12 10 15 -4 15 -19 0 -21 16
-3 23 6 3 8 5 2 5 -5 0 -22 -7 -37 -15z"/>
<path d="M1844 2896 c-27 -13 -87 -41 -134 -63 -47 -22 -119 -62 -162 -89
-123 -79 -267 -179 -263 -183 3 -2 30 9 62 25 32 16 64 27 72 26 7 -2 10 1 7
7 -4 5 -1 13 5 17 8 4 9 3 5 -4 -4 -7 -1 -12 6 -12 18 -1 -22 -30 -40 -30 -7
0 -43 -13 -79 -30 -35 -16 -68 -30 -71 -30 -12 0 -75 -61 -69 -66 3 -3 16 0
29 7 12 7 32 15 43 16 24 4 94 51 116 77 11 13 18 16 23 8 4 -7 -5 -23 -20
-37 -34 -32 -28 -32 27 1 138 81 184 112 182 125 -2 8 11 22 27 31 17 9 30 23
30 31 0 7 19 24 43 37 23 13 66 43 95 67 29 24 71 52 92 63 38 20 49 30 32 30
-4 0 -30 -11 -58 -24z m-369 -246 c-3 -5 -11 -10 -16 -10 -6 0 -7 5 -4 10 3 6
11 10 16 10 6 0 7 -4 4 -10z m100 0 c-3 -5 -12 -10 -18 -10 -7 0 -6 4 3 10 19
12 23 12 15 0z m-130 -70 c-3 -5 -14 -10 -23 -10 -15 0 -15 2 -2 10 20 13 33
13 25 0z"/>
<path d="M3755 2890 c-3 -5 -1 -10 4 -10 6 0 11 5 11 10 0 6 -2 10 -4 10 -3 0
-8 -4 -11 -10z"/>
<path d="M3265 2839 c-16 -10 -24 -19 -16 -19 10 0 11 -3 2 -13 -16 -21 -3
-27 32 -15 39 13 43 17 52 46 5 18 3 22 -17 21 -13 0 -36 -9 -53 -20z"/>
<path d="M5755 2839 c4 -5 21 -16 38 -24 18 -9 24 -13 14 -10 -29 8 -11 -11
38 -40 25 -14 51 -25 58 -22 7 2 -3 11 -20 21 -18 9 -33 19 -33 22 0 3 6 2 13
-2 6 -4 4 2 -7 14 -18 21 -112 59 -101 41z"/>
<path d="M2180 2820 c-11 -8 -7 -9 15 -4 37 8 45 14 19 14 -10 0 -26 -5 -34
-10z"/>
<path d="M2150 2791 c0 -5 9 -7 20 -4 11 3 20 7 20 9 0 2 -9 4 -20 4 -11 0
-20 -4 -20 -9z"/>
<path d="M5910 2718 c3 -3 30 -18 60 -33 l55 -27 -30 26 c-16 14 -35 25 -42
26 -6 0 -20 3 -30 7 -10 3 -16 4 -13 1z"/>
<path d="M1945 2670 c-16 -5 -45 -13 -63 -19 -29 -9 -32 -8 -22 4 17 21 0 20
-80 -6 -36 -11 -76 -22 -89 -25 -13 -3 -32 -9 -42 -14 -11 -6 -19 -6 -21 0 -2
5 -16 1 -33 -10 -18 -12 -24 -20 -15 -20 9 0 20 3 26 8 5 4 -2 -3 -16 -15 -15
-14 -32 -20 -43 -17 -24 7 -90 -34 -83 -53 7 -18 -24 -30 -34 -13 -6 10 -16 6
-39 -18 -43 -42 -43 -64 1 -41 15 8 19 8 13 -1 -11 -18 151 70 195 106 8 7 33
15 55 19 22 4 53 11 68 17 15 6 30 9 32 6 5 -5 -17 -58 -25 -58 -13 0 -72 -42
-67 -47 3 -3 21 4 40 16 19 11 51 23 72 26 48 6 145 34 145 41 0 4 -11 4 -25
2 -13 -3 -22 -2 -20 3 3 4 23 10 45 14 26 4 40 12 40 22 0 12 -8 13 -40 8 -26
-4 -40 -3 -40 4 0 11 19 15 53 11 21 -2 43 15 58 42 11 20 4 21 -46 8z"/>
<path d="M3690 2650 c0 -5 5 -10 10 -10 6 0 10 5 10 10 0 6 -4 10 -10 10 -5 0
-10 -4 -10 -10z"/>
<path d="M3687 2624 c-8 -8 3 -34 14 -34 5 0 9 9 9 20 0 19 -11 26 -23 14z"/>
<path d="M1500 2582 c-25 -15 -67 -42 -95 -59 -27 -18 -56 -33 -64 -33 -7 0
-29 -9 -47 -21 -19 -11 -39 -17 -45 -13 -8 4 -9 3 -5 -4 9 -14 -6 -16 -20 -2
-6 6 -21 2 -43 -11 -18 -11 -31 -22 -28 -25 7 -7 57 18 57 28 0 5 5 6 11 3 6
-5 4 -12 -8 -21 -17 -14 -16 -15 7 -8 23 6 24 6 10 -11 -14 -17 -13 -17 7 -7
28 16 40 34 16 26 -16 -5 -16 -4 2 10 11 9 25 14 32 12 7 -3 53 19 101 49 48
30 106 64 130 76 23 12 42 26 42 31 0 13 -12 9 -60 -20z"/>
<path d="M3795 2570 c28 -12 45 -12 45 0 0 6 -15 10 -32 9 -28 0 -30 -2 -13
-9z"/>
<path d="M1670 2540 c-8 -5 -12 -11 -9 -14 3 -3 14 1 25 9 21 16 8 20 -16 5z"/>
<path d="M1961 2519 c-15 -21 -30 -29 -51 -29 -17 0 -30 5 -30 10 0 14 -61 3
-110 -18 -19 -8 -41 -16 -49 -18 -25 -5 -33 -21 -21 -43 6 -12 8 -26 5 -31 -3
-6 3 -10 14 -10 27 0 28 -31 1 -55 -19 -17 -19 -19 -4 -36 14 -15 14 -21 4
-34 -17 -21 -56 -19 -73 5 -13 19 -14 19 -44 0 -18 -10 -49 -22 -70 -26 -21
-3 -57 -17 -80 -30 -25 -14 -44 -20 -48 -14 -4 6 -13 5 -25 -2 -30 -19 -35 -2
-14 44 10 24 18 46 17 50 -2 4 5 4 14 1 10 -4 14 -2 10 4 -4 6 9 23 29 38 38
29 40 43 2 25 -22 -11 -22 -10 2 9 14 12 31 27 39 33 8 7 22 18 31 23 44 27
70 54 64 69 -5 14 -10 13 -45 -5 -22 -11 -43 -28 -46 -37 -12 -33 -36 -52 -56
-46 -11 3 -23 1 -27 -6 -8 -13 -120 -24 -120 -11 0 4 14 17 30 29 46 35 35 45
-15 14 -48 -28 -65 -52 -38 -52 15 0 15 -2 0 -18 -26 -28 -21 -35 21 -28 l37
6 -50 -44 c-27 -25 -89 -69 -137 -97 -48 -29 -85 -55 -83 -60 6 -8 -118 -110
-138 -113 -18 -2 -126 -76 -161 -111 -17 -16 -34 -30 -38 -30 -4 0 -15 -10
-23 -22 -9 -13 -21 -23 -26 -23 -16 0 -79 -67 -89 -96 -6 -15 -13 -24 -17 -20
-8 8 -43 -23 -43 -38 0 -7 -30 -38 -68 -71 -37 -33 -112 -107 -167 -165 -55
-58 -105 -109 -112 -113 -18 -11 -94 -130 -132 -207 l-32 -65 57 55 c31 30 52
46 46 35 -6 -11 -20 -29 -32 -40 -12 -11 -31 -37 -42 -59 l-20 -38 21 14 c24
17 81 87 81 99 0 5 5 9 10 9 16 0 12 -14 -15 -54 -14 -20 -25 -43 -25 -51 0
-20 31 -11 53 16 10 13 22 24 26 24 4 0 24 18 44 39 44 46 47 31 11 -43 -15
-28 -24 -54 -22 -57 5 -5 57 95 82 159 9 21 20 36 25 32 11 -6 36 33 27 42 -3
3 -10 -5 -15 -18 -5 -13 -10 -18 -10 -11 -1 7 -5 11 -10 8 -10 -7 9 50 27 79
11 18 12 18 6 -7 -3 -16 -4 -28 -1 -28 7 0 51 73 51 87 1 7 15 22 32 35 17 13
48 40 70 61 21 22 51 45 66 53 14 7 36 26 47 40 12 15 24 24 28 21 3 -4 12 -2
20 5 10 8 12 8 8 -3 -7 -18 31 -23 41 -7 5 7 1 9 -9 5 -10 -3 -17 -2 -17 3 0
10 5 11 60 14 42 3 91 17 124 36 38 22 78 29 83 14 2 -6 -6 -14 -18 -17 l-21
-6 21 -27 c11 -15 21 -31 21 -37 0 -39 103 -68 164 -46 27 10 41 10 61 1 14
-7 35 -12 45 -12 11 0 20 -3 20 -7 0 -5 27 -9 60 -11 33 -1 60 2 60 7 0 5 -32
15 -70 22 -64 11 -90 23 -78 35 11 10 224 -20 235 -34 13 -15 25 -14 123 15
30 9 64 24 76 35 12 10 35 18 56 18 20 0 49 5 65 11 33 13 80 14 96 1 11 -8
25 -8 95 -4 12 1 22 8 22 16 0 38 49 22 69 -21 8 -18 8 -31 -3 -51 -23 -46
-28 -82 -13 -88 9 -3 12 -14 9 -29 -3 -19 2 -26 29 -38 19 -8 43 -24 53 -36
11 -11 25 -21 31 -21 7 0 18 -7 25 -15 7 -9 29 -15 54 -15 71 0 81 -16 107
-165 6 -33 13 -85 15 -115 6 -90 9 -105 21 -103 6 1 14 -14 18 -34 5 -28 3
-38 -9 -45 -9 -5 -16 -14 -16 -19 0 -6 5 -7 12 -3 7 5 9 2 5 -9 -4 -12 -2 -14
10 -10 13 5 15 1 10 -25 -4 -17 -2 -34 3 -37 6 -4 7 2 3 12 -5 15 -3 16 8 6 7
-7 20 -13 29 -13 18 0 52 32 49 46 -1 5 0 11 1 14 1 3 3 12 5 20 2 8 6 23 10
33 5 12 2 17 -9 17 -9 0 -16 7 -16 15 0 8 5 15 10 15 6 0 10 9 10 19 0 11 5
23 10 26 16 10 12 25 -5 19 -8 -4 -15 -2 -15 4 0 5 9 12 20 15 12 3 20 14 20
25 0 12 8 23 19 27 10 3 27 15 37 26 15 17 16 24 6 40 -10 16 -9 19 7 19 20 0
61 43 61 64 0 7 9 31 20 55 12 24 18 51 15 62 -7 21 36 68 83 91 30 15 55 93
46 145 -4 23 1 44 22 81 36 65 29 97 -23 107 -55 9 -124 6 -140 -6 -9 -8 -13
-8 -13 0 0 15 -67 14 -73 -1 -4 -10 -6 -10 -6 0 -1 6 -6 12 -12 12 -5 0 -22
13 -37 29 -35 37 -64 45 -105 30 -27 -10 -47 -9 -103 4 -56 12 -72 13 -84 3
-17 -15 -65 -29 -97 -29 -23 0 -40 -28 -28 -47 3 -5 0 -10 -9 -10 -9 0 -13 8
-11 26 l2 25 -33 -32 c-18 -17 -35 -42 -38 -55 -5 -18 -13 -24 -33 -24 -15 0
-36 -9 -48 -20 -29 -27 -64 -16 -72 22 -8 40 -29 46 -75 19 -42 -24 -43 -23
-39 47 3 30 1 33 -16 23 -26 -13 -39 -31 -47 -61 -13 -52 -98 -83 -132 -48 -9
8 -20 34 -25 57 -8 36 -6 46 12 69 11 15 37 36 57 47 21 11 38 24 39 29 2 12
69 56 85 56 8 0 19 5 25 11 7 7 21 3 48 -15 20 -14 41 -23 46 -21 13 9 -1 38
-29 62 l-25 21 26 44 c14 25 33 50 41 58 20 16 21 50 1 50 -8 0 -15 7 -15 15
0 9 6 12 17 8 10 -4 14 -2 10 4 -4 6 4 22 17 36 13 14 22 28 19 31 -3 2 4 10
15 17 11 7 18 18 16 24 -5 12 84 105 99 105 5 0 4 -6 -2 -14 -20 -24 5 -27 26
-3 11 12 29 27 39 34 16 10 14 11 -16 7 -19 -3 -46 -1 -60 4 l-25 10 25 10
c15 7 19 11 9 11 -9 1 -38 -15 -64 -35 -26 -21 -46 -32 -44 -27 8 22 91 82
136 99 50 19 146 91 138 104 -6 9 -54 0 -61 -11 -3 -5 -11 -9 -17 -9 -7 0 -1
9 12 19 l25 19 -47 -5 c-26 -3 -52 -1 -59 4 -7 6 -27 13 -44 16 -26 5 -34 1
-53 -24z"/>
<path d="M1320 2510 c-9 -6 -10 -10 -3 -10 6 0 15 5 18 10 8 12 4 12 -15 0z"/>
<path d="M4043 2513 c9 -2 23 -2 30 0 6 3 -1 5 -18 5 -16 0 -22 -2 -12 -5z"/>
<path d="M4238 2493 c6 -2 18 -2 25 0 6 3 1 5 -13 5 -14 0 -19 -2 -12 -5z"/>
<path d="M2186 2457 c-24 -32 -33 -57 -21 -57 4 0 19 7 34 15 16 8 31 12 34 9
3 -3 12 -2 19 2 7 5 19 9 27 9 8 0 16 6 19 14 3 8 0 11 -7 7 -6 -4 -11 -2 -11
5 0 8 -11 9 -36 4 -31 -5 -36 -4 -31 9 10 25 0 19 -27 -17z"/>
<path d="M1548 2413 c-35 -11 -48 -21 -48 -35 0 -20 -2 -21 81 28 48 28 36 30
-33 7z"/>
<path d="M1635 2410 c-3 -5 -1 -10 4 -10 6 0 11 5 11 10 0 6 -2 10 -4 10 -3 0
-8 -4 -11 -10z"/>
<path d="M2068 2393 c7 -3 16 -2 19 1 4 3 -2 6 -13 5 -11 0 -14 -3 -6 -6z"/>
<path d="M1067 2361 c-56 -33 -83 -56 -52 -45 11 4 32 16 47 26 14 10 30 18
36 18 5 0 15 7 22 15 19 23 0 18 -53 -14z"/>
<path d="M1138 2363 c-18 -15 -35 -30 -38 -34 -3 -3 -18 -13 -35 -22 -16 -9
-23 -16 -14 -17 8 0 30 11 49 25 19 14 39 25 45 25 12 0 45 32 45 43 0 14 -19
6 -52 -20z"/>
<path d="M1565 2380 c-3 -5 -2 -10 4 -10 5 0 13 5 16 10 3 6 2 10 -4 10 -5 0
-13 -4 -16 -10z"/>
<path d="M2130 2370 c0 -5 5 -10 10 -10 6 0 10 5 10 10 0 6 -4 10 -10 10 -5 0
-10 -4 -10 -10z"/>
<path d="M1156 2315 c-25 -25 -44 -45 -42 -45 14 0 93 40 104 52 10 12 9 18
-2 27 -11 9 -23 3 -60 -34z"/>
<path d="M1680 2330 c0 -5 5 -10 10 -10 6 0 10 5 10 10 0 6 -4 10 -10 10 -5 0
-10 -4 -10 -10z"/>
<path d="M1005 2290 c-3 -5 -2 -10 4 -10 5 0 13 5 16 10 3 6 2 10 -4 10 -5 0
-13 -4 -16 -10z"/>
<path d="M1219 2280 l-24 -21 33 16 c31 15 41 25 23 25 -5 0 -19 -9 -32 -20z"/>
<path d="M1000 2245 c-7 -8 -20 -15 -30 -15 -19 0 -39 -18 -38 -35 0 -5 -22
-23 -50 -40 -28 -16 -59 -39 -67 -50 -15 -18 -16 -18 -11 -2 6 18 5 18 -17 0
-34 -27 -101 -103 -91 -103 5 0 28 21 51 47 32 36 45 45 51 35 7 -10 14 -7 33
12 13 14 30 26 36 26 7 0 37 23 66 50 30 28 63 57 73 64 10 8 16 17 13 20 -3
4 -12 0 -19 -9z"/>
<path d="M1040 2240 c-8 -5 -12 -12 -9 -15 4 -3 12 1 19 10 14 17 11 19 -10 5z"/>
<path d="M1124 2235 c-10 -8 -32 -15 -49 -15 -29 -1 -93 -29 -67 -30 20 0 13
-20 -8 -20 -10 0 -44 -20 -75 -45 -30 -25 -55 -42 -55 -39 0 4 -9 -1 -20 -11
-12 -11 -28 -20 -36 -21 -8 -1 -43 -27 -77 -57 -44 -38 -63 -63 -65 -81 -2
-25 0 -26 21 -15 33 17 67 51 67 66 0 16 51 86 57 79 3 -2 0 -13 -6 -24 -9
-17 -7 -19 19 -18 16 1 42 11 59 24 17 12 34 22 39 22 5 0 29 18 54 40 25 21
49 36 52 32 4 -4 6 -1 4 7 -2 8 18 28 45 47 47 31 87 74 69 74 -4 0 -17 -7
-28 -15z m-224 -178 c0 -2 -12 -14 -27 -28 l-28 -24 24 28 c23 25 31 32 31 24z"/>
<path d="M880 2198 l-23 -32 31 23 c18 12 30 27 27 32 -8 13 -9 13 -35 -23z"/>
<path d="M6670 2141 c0 -6 13 -23 29 -37 16 -14 28 -31 25 -38 -3 -7 8 -23 22
-36 27 -25 24 -11 -4 23 -23 27 2 20 28 -8 13 -14 28 -25 34 -25 6 0 -14 24
-45 53 -78 73 -89 81 -89 68z"/>
<path d="M3685 1970 c3 -5 8 -10 11 -10 2 0 4 5 4 10 0 6 -5 10 -11 10 -5 0
-7 -4 -4 -10z"/>
<path d="M6860 1967 c0 -2 15 -16 33 -33 l32 -29 -29 33 c-28 30 -36 37 -36
29z"/>
<path d="M2150 1870 c-13 -8 -12 -10 3 -10 9 0 17 5 17 10 0 12 -1 12 -20 0z"/>
<path d="M2042 1847 c-12 -7 -19 -16 -15 -21 4 -4 1 -12 -7 -17 -11 -8 -9 -9
9 -4 25 8 91 44 91 51 0 9 -57 2 -78 -9z"/>
<path d="M1902 1816 c-47 -10 -70 -20 -90 -42 -15 -15 -18 -21 -7 -13 25 20
135 51 135 38 0 -5 14 -3 30 6 55 28 36 31 -68 11z"/>
<path d="M5127 1803 c-11 -10 -8 -41 4 -49 16 -10 29 9 23 34 -6 22 -15 27
-27 15z"/>
<path d="M1940 1770 c-13 -8 -13 -10 2 -10 9 0 20 5 23 10 8 13 -5 13 -25 0z"/>
<path d="M5387 1763 c-4 -3 -7 -11 -7 -17 0 -6 5 -5 12 2 6 6 9 14 7 17 -3 3
-9 2 -12 -2z"/>
<path d="M6583 1763 c-7 -3 -13 -9 -13 -14 0 -5 -16 -31 -36 -59 -30 -42 -40
-49 -60 -44 -15 4 -24 2 -24 -6 0 -7 6 -10 14 -7 9 4 21 -5 31 -19 9 -14 20
-22 25 -19 5 3 11 1 15 -5 3 -5 11 -10 17 -10 6 0 5 7 -4 18 -9 9 -19 28 -23
40 -6 21 -4 23 14 17 16 -5 20 -3 15 8 -7 19 16 34 26 18 4 -7 10 8 14 35 7
52 6 53 -11 47z"/>
<path d="M6204 1647 c3 -20 26 -33 26 -14 0 4 0 11 0 16 0 5 -7 11 -15 15 -11
4 -14 -1 -11 -17z"/>
<path d="M5973 1653 c-15 -5 -18 -33 -4 -33 13 0 33 28 24 33 -4 2 -14 2 -20
0z"/>
<path d="M6240 1655 c0 -2 12 -11 28 -20 26 -15 26 -16 2 -10 -19 5 -22 4 -10
-4 8 -6 22 -8 31 -5 11 3 18 -3 22 -16 3 -11 9 -20 14 -19 10 3 66 -23 74 -34
4 -5 10 -4 14 3 4 6 18 15 31 20 25 10 32 34 13 46 -6 3 -16 1 -22 -5 -14 -14
-54 -14 -62 -1 -3 6 -16 10 -28 10 -12 0 -35 9 -52 20 -28 19 -55 26 -55 15z"/>
<path d="M4446 1595 c-16 -14 -39 -25 -51 -25 -25 0 -38 -21 -28 -45 3 -9 -2
-24 -11 -34 -31 -34 -2 -93 38 -78 9 4 31 37 48 74 18 37 36 70 41 71 9 5 9
34 -1 49 -6 9 -16 6 -36 -12z"/>
<path d="M5400 1607 c0 -7 4 -17 9 -22 5 -6 19 -44 31 -85 35 -115 69 -164 84
-124 8 21 -19 118 -38 137 -7 7 -23 32 -34 54 -21 40 -52 64 -52 40z"/>
<path d="M832 1593 c-18 -8 -31 -18 -28 -20 5 -5 76 24 76 31 0 10 -13 6 -48
-11z"/>
<path d="M5916 1555 c-22 -16 -18 -41 12 -72 30 -30 38 -29 18 2 -15 23 -15
27 -1 41 8 8 15 19 15 24 0 15 -26 18 -44 5z"/>
<path d="M689 1534 c-13 -16 2 -18 35 -5 19 7 19 8 -2 13 -12 4 -26 0 -33 -8z"/>
<path d="M595 1530 c-3 -5 1 -10 9 -10 9 0 16 5 16 10 0 6 -4 10 -9 10 -6 0
-13 -4 -16 -10z"/>
<path d="M5895 1480 c3 -5 8 -10 11 -10 2 0 4 5 4 10 0 6 -5 10 -11 10 -5 0
-7 -4 -4 -10z"/>
<path d="M5810 1461 c0 -4 11 -6 25 -3 14 2 25 6 25 8 0 2 -11 4 -25 4 -14 0
-25 -4 -25 -9z"/>
<path d="M5900 1440 c0 -5 5 -10 10 -10 6 0 10 5 10 10 0 6 -4 10 -10 10 -5 0
-10 -4 -10 -10z"/>
<path d="M5617 1433 c-22 -21 2 -103 30 -103 5 0 17 -9 26 -21 17 -19 20 -20
36 -5 10 9 23 16 29 16 7 0 12 5 12 11 0 6 7 9 15 6 11 -5 13 0 8 23 -5 27 -3
30 21 30 27 0 27 0 9 25 -11 15 -24 22 -33 19 -24 -9 -124 -11 -136 -2 -6 4
-14 5 -17 1z"/>
<path d="M5536 1417 c3 -10 9 -15 12 -12 3 3 0 11 -7 18 -10 9 -11 8 -5 -6z"/>
<path d="M5946 1415 c-3 -9 0 -15 9 -15 8 0 15 7 15 15 0 8 -4 15 -9 15 -5 0
-11 -7 -15 -15z"/>
<path d="M5905 1410 c4 -6 11 -8 16 -5 14 9 11 15 -7 15 -8 0 -12 -5 -9 -10z"/>
<path d="M5876 1391 c-4 -5 2 -11 11 -13 10 -2 18 -12 18 -23 0 -14 8 -20 28
-22 22 -1 27 2 27 22 0 16 -5 22 -17 21 -10 -2 -28 3 -40 11 -13 9 -23 10 -27
4z"/>
<path d="M5510 1330 c6 -11 15 -20 19 -20 5 0 30 -18 57 -40 26 -22 50 -37 52
-35 9 8 -29 56 -51 64 -12 5 -31 18 -41 30 -25 28 -51 29 -36 1z"/>
<path d="M5773 1296 c-10 -11 -19 -34 -20 -51 -2 -28 -1 -29 9 -7 6 12 15 22
20 22 7 0 13 -39 9 -62 0 -5 4 -8 9 -8 6 0 10 16 10 35 0 33 13 47 23 25 3 -6
4 -5 3 2 -1 7 -12 14 -24 16 -12 2 -22 10 -22 18 0 20 17 18 47 -6 14 -11 31
-20 37 -20 14 0 -44 47 -66 53 -9 3 -25 -5 -35 -17z"/>
<path d="M7380 1312 c0 -5 12 -19 27 -33 l27 -24 -23 33 c-23 32 -31 39 -31
24z"/>
<path d="M5928 1244 c-5 -4 -8 -16 -8 -28 0 -14 3 -17 11 -9 6 6 9 19 7 28 -1
9 -6 13 -10 9z"/>
<path d="M5655 1220 c3 -5 8 -10 11 -10 2 0 4 5 4 10 0 6 -5 10 -11 10 -5 0
-7 -4 -4 -10z"/>
<path d="M5680 1201 c0 -10 30 -24 37 -17 3 2 -5 9 -16 16 -12 6 -21 7 -21 1z"/>
<path d="M5730 1171 c0 -7 -4 -9 -10 -6 -5 3 -10 2 -10 -4 0 -5 5 -13 10 -16
6 -3 10 -1 10 5 0 7 8 9 23 4 12 -3 20 -5 17 -2 -32 26 -40 30 -40 19z"/>
<path d="M5900 1163 c0 -5 9 -14 20 -21 11 -7 20 -8 20 -2 0 5 -9 14 -20 20
-11 6 -20 7 -20 3z"/>
<path d="M5981 1143 c18 -20 20 -25 7 -20 -18 6 -27 -18 -10 -25 18 -7 62 -76
62 -97 0 -12 -4 -19 -10 -16 -5 3 -10 1 -10 -4 0 -6 7 -11 15 -11 8 0 15 -6
15 -13 0 -19 37 -51 42 -37 5 17 48 -19 48 -42 0 -25 38 -80 51 -72 5 3 2 12
-7 21 -10 11 -14 27 -11 47 2 17 1 38 -3 46 -31 67 -46 90 -75 124 -23 26 -43
39 -60 39 -22 0 -25 4 -25 33 0 23 -6 37 -19 44 -32 17 -36 11 -10 -17z"/>
<path d="M5795 1110 c11 -5 27 -9 35 -9 13 -1 13 0 0 9 -8 5 -24 9 -35 9 l-20
0 20 -9z"/>
<path d="M5532 1018 c-7 -7 -12 -18 -12 -26 0 -7 -3 -11 -7 -9 -5 3 -8 -14 -8
-36 -1 -23 -3 -62 -5 -87 l-5 -44 38 -7 c21 -3 43 -11 50 -18 6 -6 23 -11 38
-11 66 0 149 -58 149 -105 0 -24 3 -27 25 -23 29 6 32 0 8 -18 -15 -11 -15
-13 -3 -14 11 0 16 -11 18 -32 1 -24 12 -42 39 -67 55 -48 80 -55 122 -35 20
9 47 22 61 28 39 18 51 52 44 126 -3 36 -11 74 -18 85 -8 13 -10 30 -5 49 5
17 5 53 1 80 l-7 51 -29 -38 c-27 -35 -56 -49 -56 -27 0 6 -10 24 -21 40 -25
33 -20 63 8 53 11 -4 5 8 -17 33 -28 32 -41 39 -64 37 -17 -2 -32 -7 -36 -13
-7 -12 -25 0 -33 23 -7 19 -24 21 -61 8 -17 -7 -26 -7 -30 2 -3 9 -7 8 -14 -2
-9 -12 -19 -13 -62 -3 -65 15 -93 15 -108 0z"/>
<path d="M7466 1017 c3 -10 9 -15 12 -12 3 3 0 11 -7 18 -10 9 -11 8 -5 -6z"/>
<path d="M76 974 c-5 -14 -4 -15 9 -4 17 14 19 20 6 20 -5 0 -12 -7 -15 -16z"/>
<path d="M166 963 c-6 -14 -5 -15 5 -6 7 7 10 15 7 18 -3 3 -9 -2 -12 -12z"/>
<path d="M140 909 c-7 -11 -10 -23 -7 -25 2 -2 9 7 15 21 14 30 7 33 -8 4z"/>
<path d="M6268 872 c2 -18 8 -32 13 -32 13 0 11 24 -4 45 -13 16 -14 15 -9
-13z"/>
<path d="M6200 886 c0 -2 8 -10 18 -17 15 -13 16 -12 3 4 -13 16 -21 21 -21
13z"/>
<path d="M6240 860 c0 -5 5 -10 10 -10 6 0 10 5 10 10 0 6 -4 10 -10 10 -5 0
-10 -4 -10 -10z"/>
<path d="M2350 830 c0 -5 5 -10 10 -10 6 0 10 5 10 10 0 6 -4 10 -10 10 -5 0
-10 -4 -10 -10z"/>
<path d="M6292 800 c0 -14 2 -19 5 -12 2 6 2 18 0 25 -3 6 -5 1 -5 -13z"/>
<path d="M640 759 c0 -5 5 -7 10 -4 6 3 10 8 10 11 0 2 -4 4 -10 4 -5 0 -10
-5 -10 -11z"/>
<path d="M2467 711 c-3 -14 1 -18 19 -18 13 0 21 3 18 8 -3 5 5 9 18 10 22 0
22 1 3 9 -33 14 -52 11 -58 -9z"/>
<path d="M6290 498 c0 -8 6 -23 14 -33 13 -18 14 -18 9 8 -6 29 -23 48 -23 25z"/>
<path d="M5850 456 c0 -28 24 -46 41 -29 6 6 0 18 -16 33 l-25 23 0 -27z"/>
<path d="M6490 360 c0 -5 5 -10 11 -10 5 0 7 5 4 10 -3 6 -8 10 -11 10 -2 0
-4 -4 -4 -10z"/>
<path d="M6270 201 c0 -17 -4 -31 -9 -31 -5 0 -11 -9 -14 -19 -4 -15 2 -20 27
-24 37 -6 55 2 32 15 -10 6 -16 22 -16 43 0 19 -4 37 -10 40 -6 4 -10 -7 -10
-24z"/>
<path d="M6101 162 c10 -15 24 -19 72 -20 51 -1 58 1 46 12 -8 8 -40 17 -72
21 -56 6 -58 6 -46 -13z"/>
</g>
</svg>
