<?xml version="1.0" ?><svg viewBox="0 0 64 64" xmlns="http://www.w3.org/2000/svg"><title/><g id="Sun"><path d="M62.2039,28.7528a.9987.9987,0,0,0-.3857-.6743l-6.0967-4.6548,1.4766-7.5273a1.0009,1.0009,0,0,0-.8135-1.1782L48.8231,13.43l-2.19-7.3516a1,1,0,0,0-1.268-.665L38.07,7.7865,32.7142,2.2948a1.03,1.03,0,0,0-1.4317,0L25.9266,7.7865,18.6322,5.413a1,1,0,0,0-1.2681.665l-2.19,7.3516L7.6121,14.7182a1.0009,1.0009,0,0,0-.8134,1.1782l1.4765,7.5273L2.1785,28.0785A1,1,0,0,0,2.0062,29.5l4.8056,5.979L3.5765,42.434a1,1,0,0,0,.5078,1.3389l7.0332,3.06.3677,7.6621a1.0005,1.0005,0,0,0,1.0718.95l7.65-.5591L24.0936,61.5a.9994.9994,0,0,0,1.39.3423l6.5147-4.05,6.5146,4.05a.9971.9971,0,0,0,.5278.1509,1.0236,1.0236,0,0,0,.2393-.0288,1.003,1.003,0,0,0,.6231-.4644l3.8862-6.6138,7.65.5591a1.0007,1.0007,0,0,0,1.0718-.95l.3676-7.6621,7.0332-3.06A1,1,0,0,0,60.42,42.434l-3.2353-6.9551L61.9906,29.5A.9989.9989,0,0,0,62.2039,28.7528Z" style="fill:#f7be16"/><circle cx="31.9984" cy="31.9931" r="18" style="fill:#eef5b2"/><path d="M61.9884,29.5031l-4.8,5.98,3.23,6.95a.9652.9652,0,0,1,.03.78,1.022,1.022,0,0,1-.54.56l-7.03,3.06-.37,7.66a.9893.9893,0,0,1-.33.7,1,1,0,0,1-.74.25l-7.65-.56-3.89,6.62a.9683.9683,0,0,1-.62.46.9817.9817,0,0,1-.24.03,1.0136,1.0136,0,0,1-.53-.15l-6.51-4.05-6.51,4.05a.9939.9939,0,0,1-.77.12.9683.9683,0,0,1-.62-.46l-3.89-6.62-7.65.56a1,1,0,0,1-.74-.25.9893.9893,0,0,1-.33-.7l-.16-3.34c.85.07,1.71.1,2.58.1a36.5663,36.5663,0,0,0,36.52-36.53c0-.34,0-.68-.01-1.02l5.97,1.02a.9721.9721,0,0,1,.65.41,1.0235,1.0235,0,0,1,.16.76l-1.48,7.53,6.1,4.66a1.0288,1.0288,0,0,1,.39.67A1.015,1.015,0,0,1,61.9884,29.5031Z" style="fill:#0f3460;opacity:0.15"/><path d="M32,13.9937a18,18,0,1,0,18,18A18.02,18.02,0,0,0,32,13.9937Zm0,34a16,16,0,1,1,16-16A16.0183,16.0183,0,0,1,32,47.9937Z" style="fill:#0f3460"/><path d="M62.2056,28.7535a.9986.9986,0,0,0-.3858-.6743l-6.0967-4.6548L57.2,15.8971a1.0011,1.0011,0,0,0-.8135-1.1783L48.8247,13.43l-2.19-7.3516a1,1,0,0,0-1.2681-.665L38.0718,7.7872l-5.356-5.4917a1.03,1.03,0,0,0-1.4316,0l-5.356,5.4917L18.6338,5.4137a1,1,0,0,0-1.2681.665l-2.19,7.3516L7.6138,14.7188A1.0011,1.0011,0,0,0,6.8,15.8971l1.4766,7.5273L2.18,28.0792a1,1,0,0,0-.1724,1.4214L6.8135,35.48,3.5781,42.4347a1,1,0,0,0,.5078,1.3388l7.0332,3.0606.3677,7.6621a1.0007,1.0007,0,0,0,1.0718.95l7.65-.5591,3.8862,6.6138a1,1,0,0,0,1.39.3423L32,57.7931l6.5146,4.05a.9971.9971,0,0,0,.5279.1508,1.0175,1.0175,0,0,0,.2392-.0288,1.002,1.002,0,0,0,.6231-.4643l3.8862-6.6138,7.65.5591a1.0007,1.0007,0,0,0,1.0718-.95l.3677-7.6621,7.0332-3.0606a1,1,0,0,0,.5078-1.3388L57.1865,35.48l4.8057-5.979A.9991.9991,0,0,0,62.2056,28.7535ZM55.2383,34.711a1,1,0,0,0-.1275,1.0484l3.065,6.5893-6.6631,2.8994a1.0009,1.0009,0,0,0-.6.8692l-.3481,7.2593-7.2481-.53a.994.994,0,0,0-.9351.4907L38.7,59.6031l-6.1719-3.8369a.9985.9985,0,0,0-1.0556,0L25.3,59.6031l-3.6816-6.2656a1.0067,1.0067,0,0,0-.9351-.4907l-7.2481.53-.3481-7.2593a1.0009,1.0009,0,0,0-.6-.8692L5.8242,42.3487l3.065-6.5893a1,1,0,0,0-.1275-1.0484L4.209,29.047l5.7759-4.41a1.0009,1.0009,0,0,0,.3745-.9873L8.96,16.5182l7.1636-1.2208a1,1,0,0,0,.7906-.7L18.99,7.6324,25.9,9.8809a1.0016,1.0016,0,0,0,1.0254-.2524L32,4.4259l5.0742,5.2026A1,1,0,0,0,38.1,9.8809L45.01,7.6324l2.0751,6.9649a1,1,0,0,0,.7906.7L55.04,16.5182,53.6406,23.65a1.0009,1.0009,0,0,0,.3745.9873l5.7759,4.41Z" style="fill:#0f3460"/></g></svg>